<svg class="icon" viewBox="0 0 1024 1024" version="1.1" xmlns="http://www.w3.org/2000/svg"  width="200" height="200"><path d="M713.142857 283.428571v-54.857142c0-5.028571-4.114286-9.142857-9.142857-9.142858H265.142857c-5.028571 0-9.142857 4.114286-9.142857 9.142858v54.857142c0 5.028571 4.114286 9.142857 9.142857 9.142858h438.857143c5.028571 0 9.142857-4.114286 9.142857-9.142858z m-448 100.571429c-5.028571 0-9.142857 4.114286-9.142857 9.142857v54.857143c0 5.028571 4.114286 9.142857 9.142857 9.142857h210.285714c5.028571 0 9.142857-4.114286 9.142858-9.142857v-54.857143c0-5.028571-4.114286-9.142857-9.142858-9.142857H265.142857z m429.714286 132.571429c-136.342857 0-246.857143 110.514286-246.857143 246.857142s110.514286 246.857143 246.857143 246.857143 246.857143-110.514286 246.857143-246.857143-110.514286-246.857143-246.857143-246.857142z m122.857143 369.714285C784.914286 919.085714 741.257143 937.142857 694.857143 937.142857s-90.057143-18.057143-122.857143-50.857143C539.2 853.485714 521.142857 809.828571 521.142857 763.428571s18.057143-90.057143 50.857143-122.857142C604.8 607.771429 648.457143 589.714286 694.857143 589.714286s90.057143 18.057143 122.857143 50.857143C850.514286 673.371429 868.571429 717.028571 868.571429 763.428571s-18.057143 90.057143-50.857143 122.857143zM658.285714 854.857143a36.571429 36.571429 0 1 0 73.142857 0 36.571429 36.571429 0 1 0-73.142857 0z m13.714286-73.142857h45.714286c5.028571 0 9.142857-4.114286 9.142857-9.142857V644.571429c0-5.028571-4.114286-9.142857-9.142857-9.142858h-45.714286c-5.028571 0-9.142857 4.114286-9.142857 9.142858v128c0 5.028571 4.114286 9.142857 9.142857 9.142857zM429.714286 900.571429H164.571429V96h640v393.142857c0 5.028571 4.114286 9.142857 9.142857 9.142857h64c5.028571 0 9.142857-4.114286 9.142857-9.142857V50.285714c0-20.228571-16.342857-36.571429-36.571429-36.571428H118.857143c-20.228571 0-36.571429 16.342857-36.571429 36.571428v896c0 20.228571 16.342857 36.571429 36.571429 36.571429h310.857143c5.028571 0 9.142857-4.114286 9.142857-9.142857v-64c0-5.028571-4.114286-9.142857-9.142857-9.142857z" /></svg>
